<svg width="49" height="49" viewBox="0 0 49 49" fill="none" xmlns="http://www.w3.org/2000/svg">
<path d="M14.5 16.384L22.5 32.384M14.5 32.384L22.5 16.384M42.5 14.384V34.384C42.5 36.5058 41.6571 38.5406 40.1569 40.0409C38.6566 41.5412 36.6217 42.384 34.5 42.384H14.5C12.3783 42.384 10.3434 41.5412 8.84315 40.0409C7.34285 38.5406 6.5 36.5058 6.5 34.384V14.384C6.5 12.2623 7.34285 10.2275 8.84315 8.72718C10.3434 7.22689 12.3783 6.38403 14.5 6.38403H34.5C36.6217 6.38403 38.6566 7.22689 40.1569 8.72718C41.6571 10.2275 42.5 12.2623 42.5 14.384Z" stroke="white" stroke-width="1.5" stroke-linecap="round" stroke-linejoin="round"/>
<path d="M34.5 24.384V31.184C34.5 31.3416 34.469 31.4977 34.4087 31.6433C34.3484 31.7888 34.26 31.9211 34.1485 32.0326C34.0371 32.144 33.9048 32.2324 33.7592 32.2927C33.6136 32.353 33.4576 32.384 33.3 32.384H30.5C29.4391 32.384 28.4217 31.9626 27.6716 31.2125C26.9214 30.4623 26.5 29.4449 26.5 28.384C26.5 27.3232 26.9214 26.3058 27.6716 25.5556C28.4217 24.8055 29.4391 24.384 30.5 24.384H34.5ZM34.5 24.384V18.384" stroke="white" stroke-width="1.5" stroke-linecap="round" stroke-linejoin="round"/>
</svg>
