<svg width="49" height="49" viewBox="0 0 49 49" fill="none" xmlns="http://www.w3.org/2000/svg">
<path d="M24.08 23.384H19.94V16.764H24.88C27.4 16.764 28.8 17.884 28.8 19.944C28.8 22.184 27.14 23.384 24.08 23.384ZM24.82 25.644H19.94V32.924H25.06C28.18 32.924 29.82 31.664 29.82 29.264C29.82 26.864 28.12 25.644 24.82 25.644ZM44.5 11.004V37.764C44.5 41.384 41.5 44.384 37.88 44.384H11.12C7.5 44.384 4.5 41.384 4.5 37.764V11.004C4.5 7.38403 7.5 4.38403 11.12 4.38403H37.88C41.5 4.38403 44.5 7.38403 44.5 11.004ZM32.5 29.384C32.5 26.624 30.66 24.644 27.84 24.284V24.164C29.84 23.804 31.42 21.804 31.42 19.644C31.42 16.544 29.02 14.484 25.5 14.484H17.36V35.204H25.44C29.86 35.204 32.5 33.024 32.5 29.384Z" fill="white"/>
</svg>
