<svg width="49" height="49" viewBox="0 0 49 49" fill="none" xmlns="http://www.w3.org/2000/svg">
<path fill-rule="evenodd" clip-rule="evenodd" d="M17.834 19.218C17.1556 19.218 16.4838 19.3517 15.8571 19.6113C15.2303 19.8709 14.6608 20.2514 14.1811 20.7311C13.7014 21.2108 13.3209 21.7803 13.0612 22.4071C12.8016 23.0339 12.668 23.7056 12.668 24.384C12.668 25.0624 12.8016 25.7342 13.0612 26.361C13.3209 26.9877 13.7014 27.5572 14.1811 28.0369C14.6608 28.5167 15.2303 28.8972 15.8571 29.1568C16.4838 29.4164 17.1556 29.55 17.834 29.55H23V19.218H17.834ZM23 16.218H17.834C16.4636 16.218 15.1494 15.6737 14.1804 14.7047C13.2114 13.7357 12.667 12.4214 12.667 11.051C12.667 9.68066 13.2114 8.36641 14.1804 7.39741C15.1494 6.42841 16.4636 5.88403 17.834 5.88403H23V16.218ZM26 5.88403V16.218H31.166C32.5188 16.1914 33.8072 15.6353 34.7544 14.6692C35.7017 13.7031 36.2323 12.4041 36.2323 11.051C36.2323 9.698 35.7017 8.39893 34.7544 7.43283C33.8072 6.46672 32.5188 5.91065 31.166 5.88403H26ZM31.166 19.216C29.81 19.2159 28.5083 19.7489 27.5418 20.7C26.5753 21.6512 26.0215 22.9442 26 24.3V24.466C26.0166 25.484 26.3336 26.4744 26.9112 27.3129C27.4888 28.1513 28.3013 28.8003 29.2466 29.1785C30.1919 29.5566 31.2278 29.647 32.2243 29.4383C33.2209 29.2296 34.1335 28.7311 34.8476 28.0054C35.5617 27.2797 36.0454 26.3591 36.238 25.3594C36.4306 24.3596 36.3236 23.3253 35.9302 22.3862C35.5369 21.4471 34.8748 20.6452 34.0272 20.0812C33.1795 19.5171 32.1841 19.2162 31.166 19.216ZM17.834 32.55C16.8118 32.5496 15.8124 32.8524 14.9623 33.42C14.1121 33.9877 13.4494 34.7946 13.058 35.7389C12.6665 36.6832 12.5639 37.7224 12.7631 38.725C12.9622 39.7277 13.4543 40.6487 14.177 41.3717C14.8996 42.0946 15.8205 42.587 16.823 42.7866C17.8256 42.9862 18.8648 42.8839 19.8092 42.4928C20.7537 42.1017 21.5609 41.4393 22.1289 40.5894C22.6969 39.7395 23 38.7403 23 37.718V32.55H17.834Z" fill="white"/>
</svg>
