<svg width="49" height="48" viewBox="0 0 49 48" fill="none" xmlns="http://www.w3.org/2000/svg">
<path d="M38.6 9.81999C36.7661 7.9682 34.582 6.49992 32.175 5.50071C29.768 4.5015 27.1861 3.99135 24.58 3.99999C13.66 3.99999 4.75998 12.9 4.75998 23.82C4.75998 27.32 5.67998 30.72 7.39998 33.72L4.59998 44L15.1 41.24C18 42.82 21.26 43.66 24.58 43.66C35.5 43.66 44.4 34.76 44.4 23.84C44.4 18.54 42.34 13.56 38.6 9.81999ZM24.58 40.3C21.62 40.3 18.72 39.5 16.18 38L15.58 37.64L9.33998 39.28L11 33.2L10.6 32.58C8.95507 29.9541 8.08183 26.9185 8.07998 23.82C8.07998 14.74 15.48 7.33999 24.56 7.33999C28.96 7.33999 33.1 9.05999 36.2 12.18C37.7352 13.7077 38.9518 15.5251 39.7792 17.5266C40.6066 19.5282 41.0284 21.6742 41.02 23.84C41.06 32.92 33.66 40.3 24.58 40.3ZM33.62 27.98C33.12 27.74 30.68 26.54 30.24 26.36C29.78 26.2 29.46 26.12 29.12 26.6C28.78 27.1 27.84 28.22 27.56 28.54C27.28 28.88 26.98 28.92 26.48 28.66C25.98 28.42 24.38 27.88 22.5 26.2C21.02 24.88 20.04 23.26 19.74 22.76C19.46 22.26 19.7 22 19.96 21.74C20.18 21.52 20.46 21.16 20.7 20.88C20.94 20.6 21.04 20.38 21.2 20.06C21.36 19.72 21.28 19.44 21.16 19.2C21.04 18.96 20.04 16.52 19.64 15.52C19.24 14.56 18.82 14.68 18.52 14.66H17.56C17.22 14.66 16.7 14.78 16.24 15.28C15.8 15.78 14.52 16.98 14.52 19.42C14.52 21.86 16.3 24.22 16.54 24.54C16.78 24.88 20.04 29.88 25 32.02C26.18 32.54 27.1 32.84 27.82 33.06C29 33.44 30.08 33.38 30.94 33.26C31.9 33.12 33.88 32.06 34.28 30.9C34.7 29.74 34.7 28.76 34.56 28.54C34.42 28.32 34.12 28.22 33.62 27.98Z" fill="white"/>
</svg>
