<svg width="49" height="48" viewBox="0 0 49 48" fill="none" xmlns="http://www.w3.org/2000/svg">
<path d="M38.5 6C39.5609 6 40.5783 6.42143 41.3284 7.17157C42.0786 7.92172 42.5 8.93913 42.5 10V38C42.5 39.0609 42.0786 40.0783 41.3284 40.8284C40.5783 41.5786 39.5609 42 38.5 42H10.5C9.43913 42 8.42172 41.5786 7.67157 40.8284C6.92143 40.0783 6.5 39.0609 6.5 38V10C6.5 8.93913 6.92143 7.92172 7.67157 7.17157C8.42172 6.42143 9.43913 6 10.5 6H38.5ZM37.5 37V26.4C37.5 24.6708 36.8131 23.0124 35.5903 21.7897C34.3676 20.5669 32.7092 19.88 30.98 19.88C29.28 19.88 27.3 20.92 26.34 22.48V20.26H20.76V37H26.34V27.14C26.34 25.6 27.58 24.34 29.12 24.34C29.8626 24.34 30.5748 24.635 31.0999 25.1601C31.625 25.6852 31.92 26.3974 31.92 27.14V37H37.5ZM14.26 17.12C15.1511 17.12 16.0058 16.766 16.6359 16.1359C17.266 15.5058 17.62 14.6511 17.62 13.76C17.62 11.9 16.12 10.38 14.26 10.38C13.3636 10.38 12.5039 10.7361 11.87 11.37C11.2361 12.0039 10.88 12.8636 10.88 13.76C10.88 15.62 12.4 17.12 14.26 17.12ZM17.04 37V20.26H11.5V37H17.04Z" fill="white"/>
</svg>
