<svg width="49" height="49" viewBox="0 0 49 49" fill="none" xmlns="http://www.w3.org/2000/svg">
<path d="M12.5 6.38403C10.9087 6.38403 9.38258 7.01617 8.25736 8.14139C7.13214 9.26661 6.5 10.7927 6.5 12.384V36.384C6.5 37.9753 7.13214 39.5015 8.25736 40.6267C9.38258 41.7519 10.9087 42.384 12.5 42.384H36.5C38.0913 42.384 39.6174 41.7519 40.7426 40.6267C41.8679 39.5015 42.5 37.9753 42.5 36.384V12.384C42.5 10.7927 41.8679 9.26661 40.7426 8.14139C39.6174 7.01617 38.0913 6.38403 36.5 6.38403H12.5ZM27.168 32.494C28.608 33.654 30.0453 34.226 31.48 34.21C32.36 34.21 33.0347 34.0487 33.504 33.726C33.7225 33.5842 33.9003 33.3879 34.0199 33.1564C34.1395 32.9249 34.1967 32.6663 34.186 32.406C34.189 32.1221 34.1297 31.841 34.0122 31.5825C33.8947 31.324 33.7219 31.0944 33.506 30.91C33.0367 30.5007 32.1487 30.09 30.842 29.678C29.2727 29.2247 28.0627 28.638 27.212 27.918C26.3773 27.198 25.952 26.1934 25.936 24.904C25.936 23.6867 26.464 22.6674 27.52 21.846C28.5467 21.0247 29.86 20.614 31.46 20.614C33.6893 20.614 35.478 21.1567 36.826 22.242L35.286 24.64C34.7315 24.2089 34.0953 23.8946 33.416 23.716C32.8055 23.5115 32.1677 23.4002 31.524 23.386C30.764 23.386 30.1553 23.5254 29.698 23.804C29.2447 24.084 29.018 24.4507 29.018 24.904C29.018 25.4027 29.296 25.828 29.852 26.18C30.412 26.5187 31.3653 26.8927 32.712 27.302C34.34 27.786 35.4987 28.4314 36.188 29.238C36.8773 30.0447 37.222 31.0714 37.222 32.318C37.222 33.594 36.7307 34.694 35.748 35.618C34.78 36.5274 33.372 37.004 31.524 37.048C29.104 37.048 27.08 36.322 25.452 34.87L27.168 32.494ZM16.108 33.77C16.5773 34.0634 17.142 34.21 17.802 34.21C18.4913 34.21 19.0633 34.012 19.518 33.616C19.9713 33.2054 20.1987 32.494 20.2 31.482V20.878H23.17V32.054C23.126 33.7847 22.6273 35.0314 21.674 35.794C21.1524 36.235 20.5459 36.5645 19.892 36.762C19.2856 36.9467 18.6558 37.043 18.022 37.048C16.922 37.048 15.9467 36.8574 15.096 36.476C14.1867 36.0667 13.424 35.3407 12.808 34.298L14.876 32.604C15.256 33.1174 15.6667 33.506 16.108 33.77Z" fill="white"/>
</svg>
