<svg width="49" height="49" viewBox="0 0 49 49" fill="none" xmlns="http://www.w3.org/2000/svg">
<g clip-path="url(#clip0_8_204)">
<path d="M31.776 9.51606L31.888 9.58006C30.372 10.3801 26.04 12.9601 26.04 16.2441C26.04 17.3521 26.674 18.4201 27.268 19.4241C27.792 20.3081 28.286 21.1401 28.286 21.9001C28.286 23.8141 26.42 25.3001 25.366 25.9841L25.166 25.8681C25.564 25.3821 26.054 24.5681 26.054 23.7001C26.054 22.5041 25.44 21.5481 24.818 20.5781C24.174 19.5761 23.522 18.5581 23.522 17.2381C23.522 12.6541 29.752 10.1941 31.776 9.51606ZM23.586 11.9401C26.092 9.70006 28.83 7.25206 28.83 3.57006C28.83 1.90406 28.148 0.840062 27.81 0.414062L27.7 0.476062C27.78 0.808062 27.9 1.42006 27.9 2.22006C27.9 5.57206 25.056 7.92006 22.304 10.1961C19.722 12.3321 17.22 14.4001 17.22 17.1681C17.22 21.1381 21.136 23.5801 22.79 24.6121L22.916 24.6921L23.016 24.6321C22.9267 24.5334 22.832 24.4321 22.732 24.3281C21.46 22.9741 19.528 20.9201 19.528 17.7781C19.528 15.5721 21.474 13.8301 23.586 11.9401ZM22.684 31.7561C26.212 31.7561 28.68 31.2501 29.776 30.9401L31.44 31.9001C29.854 32.7061 26.338 33.3201 22.676 33.3201C18.37 33.3201 13.662 32.3961 13.648 31.1641C13.638 30.4841 15.178 30.0321 16.838 29.7401L16.938 29.7981C16.938 29.7981 16.376 30.0001 16.382 30.4641C16.39 31.1641 19.222 31.7561 22.682 31.7561M15.624 36.0981C15.624 35.2841 17.302 34.8981 18.07 34.7441L18.17 34.8041C18.038 34.9021 17.966 35.0361 17.966 35.1501C17.966 35.6841 19.826 36.1721 22.678 36.1721C25.234 36.1721 26.654 35.8581 27.498 35.6561L29.478 36.8021C29.388 36.8661 27.438 38.0921 22.674 38.0921C19.212 38.0921 15.624 37.2281 15.624 36.0981ZM32.682 32.6421C35.042 31.2961 37.404 29.7041 37.538 27.1481C37.626 25.4701 36.084 24.2401 34.398 24.5681L34.488 24.3441V24.3401C34.912 24.2121 35.436 24.1081 36.022 24.1081C37.908 24.1081 39.354 25.2381 39.538 26.8201C39.91 29.9921 35.414 32.0561 32.896 32.7661L32.682 32.6421ZM36.632 38.6181C36.652 40.7981 29.236 42.0941 22.608 42.1521C16.886 42.2021 7.66004 41.1221 7.64004 38.9421C7.62804 37.4361 11.64 36.3941 13.82 36.0941L14.05 36.2241C14.05 36.2241 10.8 36.9781 10.81 38.3481C10.822 39.7141 17.66 40.8961 22.598 40.8541C30.248 40.7861 35.426 39.5401 36.038 37.8501L36.146 37.7881C36.37 37.9521 36.626 38.2221 36.632 38.6181ZM13.36 43.0581C16.1899 43.5102 19.0523 43.7276 21.918 43.7081C34.334 43.6001 37.838 40.5481 38.378 39.8841L38.472 39.9401C38.344 42.3561 31.778 44.3641 23.68 44.4341C19.558 44.4701 15.806 43.9941 13.11 43.2041L13.36 43.0581ZM18.564 24.4921C16.406 24.6581 11.772 25.3441 11.772 26.5641C11.772 27.4881 16.02 28.7901 22.676 28.7901C28.664 28.7901 32.444 27.6601 33.326 27.2301L32.04 26.4801C31.12 26.7301 27.702 27.4921 22.676 27.4921C19.716 27.4921 14.616 26.9461 14.616 26.1121C14.616 25.3641 17.798 24.7881 18.712 24.6221L18.77 24.6121L18.564 24.4921Z" fill="white"/>
</g>
<defs>
<clipPath id="clip0_8_204">
<rect width="48" height="48" fill="white" transform="translate(0.5 0.384033)"/>
</clipPath>
</defs>
</svg>
