<svg width="49" height="49" viewBox="0 0 49 49" fill="none" xmlns="http://www.w3.org/2000/svg">
<g clip-path="url(#clip0_8_189)">
<path d="M24.5 48.2961C23.816 48.2961 23.18 48.1181 22.586 47.8101L16.528 44.3341C15.618 43.8501 16.074 43.6741 16.348 43.5861C17.576 43.1901 17.804 43.1021 19.08 42.3961C19.216 42.3081 19.4 42.3521 19.536 42.4401L24.182 45.1261C24.362 45.2141 24.592 45.2141 24.728 45.1261L42.902 34.9581C43.082 34.8701 43.174 34.6941 43.174 34.4741V14.1821C43.174 13.9621 43.084 13.7861 42.902 13.6981L24.728 3.57605C24.546 3.48805 24.318 3.48805 24.182 3.57605L6.008 13.6981C5.826 13.7861 5.734 14.0061 5.734 14.1821V34.4741C5.734 34.6501 5.826 34.8701 6.008 34.9581L10.972 37.7321C13.66 39.0521 15.344 37.5121 15.344 35.9721V15.9441C15.344 15.6801 15.572 15.4161 15.892 15.4161H18.214C18.488 15.4161 18.76 15.6361 18.76 15.9441V35.9701C18.76 39.4481 16.802 41.4721 13.386 41.4721C12.338 41.4721 11.518 41.4721 9.196 40.3721L4.414 37.7321C3.83818 37.4147 3.35732 36.9496 3.02092 36.3848C2.68451 35.8199 2.5047 35.1755 2.5 34.5181V14.2261C2.5 12.9061 3.228 11.6741 4.414 11.0141L22.588 0.844053C23.1799 0.541414 23.8352 0.383606 24.5 0.383606C25.1648 0.383606 25.8201 0.541414 26.412 0.844053L44.588 11.0121C45.772 11.6721 46.5 12.9041 46.5 14.2241V34.5161C46.5 35.8361 45.772 37.0681 44.588 37.7301L26.414 47.8961C25.8099 48.1579 25.1584 48.2927 24.5 48.2921M30.102 34.3381C22.132 34.3381 20.492 30.8181 20.492 27.8241C20.492 27.5601 20.72 27.2961 21.038 27.2961H23.406C23.68 27.2961 23.906 27.4721 23.906 27.7361C24.272 30.0681 25.32 31.2121 30.148 31.2121C33.974 31.2121 35.614 30.3761 35.614 28.3961C35.614 27.2521 35.158 26.4161 29.192 25.8441C24.226 25.3581 21.13 24.3041 21.13 20.4741C21.13 16.9081 24.226 14.7941 29.42 14.7941C35.25 14.7941 38.12 16.7321 38.484 20.9581C38.4796 21.1011 38.4314 21.2393 38.346 21.3541C38.256 21.4421 38.12 21.5301 37.982 21.5301H35.614C35.499 21.5273 35.388 21.4871 35.2978 21.4157C35.2076 21.3442 35.1431 21.2454 35.114 21.1341C34.566 18.7141 33.154 17.9201 29.42 17.9201C25.228 17.9201 24.728 19.3281 24.728 20.3861C24.728 21.6621 25.32 22.0581 30.968 22.7621C36.57 23.4661 39.212 24.4781 39.212 28.2621C39.166 32.1381 35.888 34.3381 30.102 34.3381Z" fill="white"/>
</g>
<defs>
<clipPath id="clip0_8_189">
<rect width="48" height="48" fill="white" transform="translate(0.5 0.384033)"/>
</clipPath>
</defs>
</svg>
