<svg width="49" height="49" viewBox="0 0 49 49" fill="none" xmlns="http://www.w3.org/2000/svg">
<path d="M21.4 21.344C21.4303 21.9513 21.2467 22.5499 20.8814 23.0359C20.516 23.5219 19.9918 23.8644 19.4 24.004C18.356 24.3123 17.2671 24.4408 16.18 24.384C15.9 24.384 15.88 24.204 15.88 24.004V18.904C15.88 18.764 16.02 18.524 16.1 18.524C17.2441 18.3959 18.4018 18.4704 19.52 18.744C20.0828 18.8982 20.576 19.2401 20.9179 19.7129C21.2598 20.1858 21.4299 20.7613 21.4 21.344Z" fill="white"/>
<path d="M34.5 4.38403H14.5C11.8478 4.38403 9.3043 5.4376 7.42893 7.31297C5.55357 9.18833 4.5 11.7319 4.5 14.384V34.384C4.5 37.0362 5.55357 39.5797 7.42893 41.4551C9.3043 43.3305 11.8478 44.384 14.5 44.384H34.5C37.1522 44.384 39.6957 43.3305 41.5711 41.4551C43.4464 39.5797 44.5 37.0362 44.5 34.384V14.384C44.5 11.7319 43.4464 9.18833 41.5711 7.31297C39.6957 5.4376 37.1522 4.38403 34.5 4.38403ZM22.5 26.384C21.4906 27.0251 20.3339 27.3969 19.14 27.464H16.46C15.9 27.464 15.9 27.464 15.9 28.004V32.644C15.9 33.044 15.78 33.164 15.38 33.164H12.74C12.36 33.164 12.26 33.024 12.26 32.664V15.804C12.26 15.404 12.26 15.284 12.76 15.284H19.02C20.1626 15.315 21.2782 15.6387 22.26 16.224C23.1079 16.7018 23.8138 17.396 24.3057 18.2358C24.7977 19.0755 25.0579 20.0308 25.06 21.004C25.1757 22.0501 24.9974 23.1078 24.5452 24.0581C24.093 25.0085 23.3847 25.814 22.5 26.384ZM34.34 32.984C32.6007 33.6617 30.6964 33.7942 28.88 33.364C28.3347 33.244 27.8013 33.084 27.28 32.884C27.1996 32.8463 27.1289 32.7906 27.0734 32.7213C27.018 32.6519 26.9792 32.5708 26.96 32.484V29.464C27.6 29.704 28.2 29.984 28.82 30.184C29.8591 30.5161 30.9592 30.6118 32.04 30.464C32.256 30.424 32.4627 30.3574 32.66 30.264C32.7772 30.2127 32.8791 30.1319 32.9557 30.0294C33.0324 29.9269 33.0811 29.8063 33.0973 29.6794C33.1134 29.5525 33.0963 29.4235 33.0477 29.3051C32.9991 29.1868 32.9207 29.083 32.82 29.004C32.3625 28.6873 31.8732 28.4192 31.36 28.204C30.54 27.804 29.7 27.484 28.92 27.024C28.2157 26.6814 27.6408 26.1208 27.2805 25.4254C26.9202 24.73 26.7937 23.937 26.92 23.164C27.0217 22.4201 27.3308 21.7199 27.8118 21.1434C28.2928 20.5669 28.9264 20.1374 29.64 19.904C30.9263 19.4691 32.2988 19.3524 33.64 19.564C34.28 19.564 34.9 19.804 35.54 19.924C35.88 19.924 36 20.204 35.98 20.544V22.884C35.98 23.324 35.88 23.364 35.48 23.204C34.2309 22.6257 32.8501 22.391 31.48 22.524C31.2859 22.5466 31.0967 22.6007 30.92 22.684C30.8 22.7311 30.6944 22.8088 30.6137 22.9092C30.5329 23.0097 30.4798 23.1295 30.4596 23.2568C30.4394 23.3841 30.4528 23.5145 30.4985 23.635C30.5441 23.7556 30.6205 23.8621 30.72 23.944C31.2987 24.3294 31.9053 24.6627 32.54 24.944C33.3 25.324 34.1 25.624 34.84 26.044C35.5115 26.3496 36.0677 26.8618 36.4275 27.5058C36.7873 28.1499 36.9318 28.892 36.84 29.624C36.7768 30.3542 36.5059 31.0511 36.0594 31.6323C35.6128 32.2135 35.0093 32.6548 34.32 32.904L34.34 32.984Z" fill="white"/>
</svg>
