<svg width="49" height="49" viewBox="0 0 49 49" fill="none" xmlns="http://www.w3.org/2000/svg">
<g clip-path="url(#clip0_8_198)">
<path d="M24.5 11.384C11.042 11.384 0.5 17.094 0.5 24.384C0.5 31.674 11.042 37.384 24.5 37.384C37.958 37.384 48.5 31.674 48.5 24.384C48.5 17.094 37.958 11.384 24.5 11.384ZM22.008 15.384H24.628L23.796 19.384H26.136C27.62 19.384 28.616 19.592 29.184 20.11C29.738 20.622 29.906 21.462 29.684 22.606L28.644 27.384H25.98L26.938 22.966C27.0527 22.3567 27.008 21.94 26.804 21.716C26.602 21.494 26.156 21.384 25.488 21.384H23.39L22.124 27.384H19.5L22.008 15.384ZM10.5 19.384H15.832C18.374 19.384 19.914 21.088 19.312 23.63C18.612 26.584 16.74 27.384 13.292 27.384H11.644L11.122 30.384H8.472L10.5 19.384ZM31.5 19.384H36.832C39.374 19.384 40.914 21.088 40.312 23.63C39.612 26.584 37.738 27.384 34.292 27.384H32.644L32.122 30.384H29.472L31.5 19.384ZM12.77 21.384L12.016 25.384H13.726C15.206 25.384 16.582 25.216 16.812 23.01C16.898 22.154 16.542 21.384 14.832 21.384H12.77ZM33.77 21.384L33.016 25.384H34.726C36.206 25.384 37.582 25.216 37.812 23.01C37.898 22.154 37.544 21.384 35.832 21.384H33.77Z" fill="white"/>
</g>
<defs>
<clipPath id="clip0_8_198">
<rect width="48" height="48" fill="white" transform="translate(0.5 0.384033)"/>
</clipPath>
</defs>
</svg>
