<svg width="49" height="49" viewBox="0 0 49 49" fill="none" xmlns="http://www.w3.org/2000/svg">
<path d="M24.5 20.604C26.56 20.604 28.24 22.284 28.24 24.384C28.24 26.384 26.56 28.084 24.5 28.084C22.44 28.084 20.76 26.384 20.76 24.384C20.76 22.284 22.44 20.604 24.5 20.604ZM15.24 40.384C16.5 41.144 19.26 39.984 22.44 36.984C21.4 35.804 20.38 34.524 19.42 33.184C17.8084 33.0287 16.2062 32.7883 14.62 32.464C13.6 36.744 13.98 39.684 15.24 40.384ZM16.66 28.904L16.08 27.884C15.86 28.464 15.64 29.044 15.5 29.604C16.04 29.724 16.64 29.824 17.26 29.924L16.66 28.904ZM29.74 27.384L31.36 24.384L29.74 21.384C29.14 20.324 28.5 19.384 27.92 18.444C26.84 18.384 25.7 18.384 24.5 18.384C23.3 18.384 22.16 18.384 21.08 18.444C20.5 19.384 19.86 20.324 19.26 21.384L17.64 24.384L19.26 27.384C19.86 28.444 20.5 29.384 21.08 30.324C22.16 30.384 23.3 30.384 24.5 30.384C25.7 30.384 26.84 30.384 27.92 30.324C28.5 29.384 29.14 28.444 29.74 27.384ZM24.5 13.944C24.12 14.384 23.72 14.844 23.32 15.384H25.68C25.28 14.844 24.88 14.384 24.5 13.944ZM24.5 34.824C24.88 34.384 25.28 33.924 25.68 33.384H23.32C23.72 33.924 24.12 34.384 24.5 34.824ZM33.74 8.38403C32.5 7.62403 29.74 8.78403 26.56 11.784C27.6 12.964 28.62 14.244 29.58 15.584C31.22 15.744 32.84 15.984 34.38 16.304C35.4 12.024 35.02 9.08403 33.74 8.38403ZM32.34 19.864L32.92 20.884C33.14 20.304 33.36 19.724 33.5 19.164C32.96 19.044 32.36 18.944 31.74 18.844L32.34 19.864ZM35.24 5.76403C38.18 7.44403 38.5 11.864 37.26 17.024C42.34 18.524 46 21.004 46 24.384C46 27.764 42.34 30.244 37.26 31.744C38.5 36.904 38.18 41.324 35.24 43.004C32.32 44.684 28.34 42.764 24.5 39.104C20.66 42.764 16.68 44.684 13.74 43.004C10.82 41.324 10.5 36.904 11.74 31.744C6.66 30.244 3 27.764 3 24.384C3 21.004 6.66 18.524 11.74 17.024C10.5 11.864 10.82 7.44403 13.74 5.76403C16.68 4.08403 20.66 6.00403 24.5 9.66403C28.34 6.00403 32.32 4.08403 35.24 5.76403ZM34.66 24.384C35.34 25.884 35.94 27.384 36.44 28.904C40.64 27.644 43 25.844 43 24.384C43 22.924 40.64 21.124 36.44 19.864C35.94 21.384 35.34 22.884 34.66 24.384ZM14.34 24.384C13.66 22.884 13.06 21.384 12.56 19.864C8.36 21.124 6 22.924 6 24.384C6 25.844 8.36 27.644 12.56 28.904C13.06 27.384 13.66 25.884 14.34 24.384ZM32.34 28.904L31.74 29.924C32.36 29.824 32.96 29.724 33.5 29.604C33.36 29.044 33.14 28.464 32.92 27.884L32.34 28.904ZM26.56 36.984C29.74 39.984 32.5 41.144 33.74 40.384C35.02 39.684 35.4 36.744 34.38 32.464C32.84 32.784 31.22 33.024 29.58 33.184C28.62 34.524 27.6 35.804 26.56 36.984ZM16.66 19.864L17.26 18.844C16.64 18.944 16.04 19.044 15.5 19.164C15.64 19.724 15.86 20.304 16.08 20.884L16.66 19.864ZM22.44 11.784C19.26 8.78403 16.5 7.62403 15.24 8.38403C13.98 9.08403 13.6 12.024 14.62 16.304C16.2062 15.9797 17.8084 15.7394 19.42 15.584C20.38 14.244 21.4 12.964 22.44 11.784Z" fill="white"/>
</svg>
