<svg width="49" height="49" viewBox="0 0 49 49" fill="none" xmlns="http://www.w3.org/2000/svg">
<path d="M24.5 12.384C19.16 12.384 15.84 15.044 14.5 20.384C16.5 17.724 18.84 16.724 21.5 17.384C23.02 17.764 24.12 18.864 25.32 20.084C27.28 22.084 29.5 24.384 34.5 24.384C39.84 24.384 43.16 21.724 44.5 16.384C42.5 19.044 40.16 20.044 37.5 19.384C35.98 19.004 34.9 17.904 33.68 16.684C31.72 14.684 29.5 12.384 24.5 12.384ZM14.5 24.384C9.16 24.384 5.84 27.044 4.5 32.384C6.5 29.724 8.84 28.724 11.5 29.384C13.02 29.764 14.1 30.864 15.32 32.084C17.28 34.084 19.5 36.384 24.5 36.384C29.84 36.384 33.16 33.724 34.5 28.384C32.5 31.044 30.16 32.044 27.5 31.384C25.98 31.004 24.9 29.904 23.68 28.684C21.72 26.684 19.5 24.384 14.5 24.384Z" fill="white"/>
</svg>
