<svg width="49" height="49" viewBox="0 0 49 49" fill="none" xmlns="http://www.w3.org/2000/svg">
<g clip-path="url(#clip0_8_167)">
<mask id="mask0_8_167" style="mask-type:luminance" maskUnits="userSpaceOnUse" x="0" y="0" width="49" height="49">
<path d="M0.5 0.384033H48.5V48.384H0.5V0.384033Z" fill="white"/>
</mask>
<g mask="url(#mask0_8_167)">
<path d="M47.358 0.38404H1.64C1.49013 0.38404 1.34172 0.413593 1.20328 0.471008C1.06484 0.528424 0.939077 0.612575 0.833192 0.718645C0.727307 0.824716 0.643377 0.950625 0.586204 1.08917C0.529032 1.22771 0.499739 1.37617 0.500002 1.52604V47.244C0.499738 47.3941 0.529097 47.5427 0.586395 47.6814C0.643692 47.8201 0.727801 47.946 0.833898 48.0521C0.939995 48.1582 1.06599 48.2424 1.20467 48.2996C1.34334 48.3569 1.49196 48.3863 1.642 48.386H47.36C47.51 48.3863 47.6587 48.3569 47.7973 48.2996C47.936 48.2424 48.062 48.1582 48.1681 48.0521C48.2742 47.946 48.3583 47.8201 48.4156 47.6814C48.4729 47.5427 48.5023 47.3941 48.502 47.244V1.52404C48.502 1.374 48.4724 1.22543 48.4148 1.08686C48.3573 0.948283 48.273 0.822432 48.1667 0.716521C48.0604 0.61061 47.9343 0.526721 47.7955 0.469667C47.6567 0.412612 47.508 0.383514 47.358 0.38404ZM29.072 26.036H23.358V43.812H18.786V26.036H13.072V22.098H29.072V26.036ZM30.352 42.796V38.046C30.352 38.046 32.948 40.002 36.062 40.002C39.176 40.002 39.056 37.966 39.056 37.686C39.056 34.732 30.232 34.732 30.232 28.184C30.232 19.28 43.09 22.794 43.09 22.794L42.93 27.026C42.93 27.026 40.774 25.588 38.338 25.588C35.902 25.588 35.024 26.748 35.024 27.984C35.024 31.178 43.928 30.86 43.928 37.288C43.928 47.188 30.352 42.798 30.352 42.798" fill="white"/>
</g>
</g>
<defs>
<clipPath id="clip0_8_167">
<rect width="48" height="48" fill="white" transform="translate(0.5 0.384033)"/>
</clipPath>
</defs>
</svg>
