<svg width="49" height="49" viewBox="0 0 49 49" fill="none" xmlns="http://www.w3.org/2000/svg">
<path d="M17.55 9.64404L7.28599 7.81404C6.84912 7.73293 6.39819 7.77788 5.98593 7.94363C5.57367 8.10939 5.21712 8.38909 4.95799 8.75004C4.68566 9.11577 4.52714 9.55364 4.50224 10.0089C4.47734 10.4642 4.58717 10.9168 4.81799 11.31L22.62 42.47C22.8275 42.8332 23.1277 43.1348 23.4899 43.344C23.8521 43.5533 24.2634 43.6627 24.6817 43.661C25.0999 43.6594 25.5103 43.5468 25.8709 43.3348C26.2314 43.1227 26.5293 42.8188 26.734 42.454L44.192 11.298C45.172 9.54804 43.668 7.46404 41.708 7.82004L32.56 9.44604L32.148 10.954L41.96 9.21204C42.1366 9.18031 42.3186 9.19936 42.4848 9.26698C42.651 9.33459 42.7946 9.44799 42.8989 9.59399C43.0032 9.73999 43.064 9.91259 43.0741 10.0917C43.0842 10.2709 43.0432 10.4492 42.956 10.606L25.5 41.762C25.404 41.9356 25.2556 42.0743 25.0759 42.1583C24.8963 42.2424 24.6947 42.2675 24.5 42.23C24.364 42.2057 24.2351 42.1516 24.1225 42.0718C24.0098 41.9919 23.9161 41.8882 23.848 41.768L6.04399 10.608C5.95538 10.4514 5.91318 10.2728 5.92232 10.0931C5.93145 9.91338 5.99155 9.73997 6.09559 9.59315C6.19963 9.44632 6.3433 9.33214 6.50983 9.26394C6.67636 9.19575 6.85885 9.17636 7.03599 9.20804L17.302 11.04L17.45 11.066L17.55 9.64404Z" fill="white"/>
<path d="M30.694 10.904L31.018 9.71802L29.818 9.93202L30.694 10.904ZM18.934 9.89202L19.96 10.072L18.876 10.926L18.934 9.89202Z" fill="white"/>
<path d="M31.598 5.11804L19.398 7.63804C19.2988 7.65881 19.2097 7.71321 19.146 7.79204C19.0807 7.87297 19.0422 7.97224 19.036 8.07604L18.286 21.446C18.2813 21.5185 18.2931 21.591 18.3204 21.6582C18.3478 21.7254 18.39 21.7855 18.444 21.834C18.4954 21.882 18.5581 21.9163 18.6262 21.9338C18.6944 21.9513 18.7658 21.9514 18.834 21.934L22.23 21.106C22.55 21.03 22.834 21.326 22.77 21.662L21.76 26.874C21.692 27.226 22.004 27.526 22.33 27.422L24.428 26.75C24.752 26.646 25.066 26.946 24.996 27.298L23.394 35.484C23.294 35.998 23.938 36.276 24.208 35.838L24.388 35.544L34.328 14.616C34.496 14.266 34.208 13.866 33.844 13.94L30.348 14.652C30.018 14.72 29.74 14.396 29.832 14.058L32.112 5.71204C32.206 5.37204 31.926 5.05004 31.598 5.11804Z" fill="white"/>
</svg>
