<svg width="49" height="49" viewBox="0 0 49 49" fill="none" xmlns="http://www.w3.org/2000/svg">
<path d="M24.5 4.38403C13.48 4.38403 4.5 13.364 4.5 24.384C4.5 35.404 13.48 44.384 24.5 44.384C35.52 44.384 44.5 35.404 44.5 24.384C44.5 13.364 35.52 4.38403 24.5 4.38403ZM6.52 24.384C6.52 21.784 7.08 19.304 8.08 17.064L16.66 40.564C10.66 37.644 6.52 31.504 6.52 24.384ZM24.5 42.364C22.74 42.364 21.04 42.104 19.42 41.624L24.82 25.944L30.34 41.084C30.38 41.164 30.42 41.264 30.46 41.324C28.6 42.004 26.6 42.364 24.5 42.364ZM26.98 15.944C28.06 15.884 29.04 15.764 29.04 15.764C30 15.644 29.9 14.224 28.92 14.284C28.92 14.284 26 14.504 24.12 14.504C22.36 14.504 19.38 14.284 19.38 14.284C18.42 14.244 18.3 15.724 19.28 15.784C19.28 15.784 20.2 15.904 21.16 15.964L23.96 23.644L20.02 35.444L13.48 15.944C14.56 15.904 15.54 15.784 15.54 15.784C16.5 15.664 16.4 14.244 15.42 14.304C15.42 14.304 12.5 14.524 10.62 14.524C10.28 14.524 9.88 14.524 9.46 14.504C12.7 9.62403 18.22 6.40403 24.5 6.40403C29.18 6.40403 33.44 8.18403 36.64 11.124C36.56 11.124 36.48 11.104 36.4 11.104C34.64 11.104 33.38 12.644 33.38 14.304C33.38 15.784 34.24 17.044 35.14 18.524C35.82 19.724 36.62 21.264 36.62 23.484C36.62 25.024 36.02 26.804 35.26 29.304L33.46 35.304L26.98 15.944ZM40.28 15.764C42.5254 19.8755 43.0774 24.701 41.8186 29.2134C40.5598 33.7258 37.5895 37.5686 33.54 39.924L39.04 24.044C40.06 21.484 40.4 19.424 40.4 17.604C40.4 16.944 40.36 16.324 40.28 15.764Z" fill="white"/>
</svg>
